# Blender v2.93.5 OBJ File: 'untitled.blend'
# www.blender.org
mtllib pineapple.mtl
o Pineapple_Cylinder
v 0.000000 0.000490 -0.046086
v 0.000000 0.147704 -0.040790
v 0.039912 0.000490 -0.023043
v 0.035326 0.147704 -0.020395
v 0.039912 0.000490 0.023043
v 0.035326 0.147704 0.020395
v -0.000000 0.000490 0.046086
v -0.000000 0.147704 0.040790
v -0.039912 0.000490 0.023043
v -0.035326 0.147704 0.020395
v -0.039912 0.000490 -0.023043
v -0.035326 0.147704 -0.020395
v 0.000000 0.049561 -0.060000
v 0.000000 0.098633 -0.060000
v 0.030000 0.123168 -0.051962
v 0.030000 0.074097 -0.051962
v 0.030000 0.025026 -0.051962
v 0.051962 0.098633 -0.030000
v 0.051962 0.049561 -0.030000
v 0.060000 0.123168 0.000000
v 0.060000 0.074097 0.000000
v 0.060000 0.025026 0.000000
v 0.051962 0.098633 0.030000
v 0.051962 0.049561 0.030000
v 0.030000 0.123168 0.051962
v 0.030000 0.074097 0.051962
v 0.030000 0.025026 0.051962
v -0.000000 0.098633 0.060000
v -0.000000 0.049561 0.060000
v -0.030000 0.123168 0.051962
v -0.030000 0.074097 0.051962
v -0.030000 0.025026 0.051962
v -0.051962 0.098633 0.030000
v -0.051962 0.049561 0.030000
v -0.060000 0.123168 -0.000000
v -0.060000 0.074097 -0.000000
v -0.060000 0.025026 -0.000000
v -0.051962 0.098633 -0.030000
v -0.051962 0.049561 -0.030000
v -0.030000 0.123168 -0.051962
v -0.030000 0.074097 -0.051962
v -0.030000 0.025026 -0.051962
v 0.039912 0.147704 0.023043
v 0.039912 0.147704 -0.023043
v -0.000000 0.147704 0.046086
v -0.039912 0.147704 0.023043
v -0.039912 0.147704 -0.023043
v 0.000000 0.147704 -0.046086
v 0.053773 0.229706 0.031046
v 0.053773 0.229706 -0.031046
v -0.000000 0.229706 0.062091
v -0.053773 0.229706 0.031046
v -0.053773 0.229706 -0.031046
v -0.000000 0.229706 -0.062091
v 0.038243 0.169619 0.000000
v 0.019121 0.169619 0.033119
v -0.019121 0.169619 0.033119
v -0.038243 0.169619 0.000000
v -0.019121 0.169619 -0.033119
v 0.019121 0.169619 -0.033119
v 0.053655 0.014075 -0.030978
v 0.053655 0.014075 0.030978
v 0.000000 0.014075 0.061955
v -0.053655 0.014075 0.030978
v -0.000000 0.014075 -0.061955
v -0.053655 0.014075 -0.030978
v -0.053655 0.129711 -0.030978
v -0.033020 0.100837 -0.057191
v -0.000000 0.071893 -0.066039
v -0.000000 0.129711 -0.061955
v -0.057191 0.071893 -0.033020
v -0.033020 0.042949 -0.057191
v -0.066039 0.042949 -0.000000
v -0.066039 0.100837 -0.000000
v -0.053655 0.129711 0.030978
v -0.057191 0.071893 0.033020
v -0.000000 0.000490 -0.000000
v -0.033020 0.042949 0.057191
v -0.033020 0.100837 0.057191
v 0.000000 0.129711 0.061956
v 0.000000 0.071893 0.066039
v 0.033020 0.042949 0.057191
v 0.033020 0.100837 0.057191
v 0.053655 0.129711 0.030978
v 0.057191 0.071893 0.033020
v 0.066039 0.042949 0.000000
v 0.066039 0.100837 0.000000
v 0.053655 0.129711 -0.030978
v 0.057191 0.071893 -0.033020
v 0.033020 0.042949 -0.057191
v 0.033020 0.100837 -0.057191
v 0.023119 0.008216 -0.040043
v 0.023119 0.139978 -0.040043
v 0.046237 0.008216 0.000000
v 0.046237 0.139978 0.000000
v 0.023119 0.008216 0.040043
v 0.023119 0.139978 0.040043
v -0.023119 0.008216 0.040043
v -0.023119 0.139978 0.040043
v -0.046237 0.008216 0.000000
v -0.046237 0.139978 -0.000000
v -0.023119 0.008216 -0.040043
v -0.023119 0.139978 -0.040043
v 0.039308 0.146680 0.000000
v 0.019654 0.146680 0.034041
v -0.019654 0.146680 0.034041
v -0.039308 0.146680 -0.000000
v -0.019654 0.146680 -0.034041
v 0.019654 0.146680 -0.034041
vt 0.666667 0.666667
vt 0.583333 0.583333
vt 0.666667 0.583496
vt 0.500000 0.666667
vt 0.416667 0.583333
vt 0.500000 0.583496
vt 0.333333 0.666667
vt 0.250000 0.583333
vt 0.333333 0.583496
vt 1.000000 0.666667
vt 0.916667 0.583333
vt 0.500978 0.583496
vt 0.166667 0.666667
vt 0.083333 0.583333
vt 0.166667 0.583496
vt 0.166667 0.833333
vt 0.250000 0.916667
vt 0.166667 0.916504
vt 0.083333 0.916667
vt 0.083333 0.833333
vt 1.000000 0.833333
vt 0.916667 0.750000
vt 0.500000 0.750000
vt 1.000000 1.000000
vt 0.499022 0.916504
vt 0.250000 0.750000
vt 0.166667 0.750000
vt 0.083333 0.750000
vt 0.083333 0.666667
vt 0.250000 0.666667
vt 0.333333 0.833333
vt 0.250000 0.833333
vt 0.416667 0.916667
vt 0.333333 0.916504
vt 0.416667 0.750000
vt 0.333333 0.750000
vt 0.750000 0.490000
vt 0.957846 0.370000
vt 0.750000 0.250000
vt 0.416667 0.666667
vt 0.500000 0.833333
vt 0.416667 0.833333
vt 0.583333 0.916667
vt 0.500000 0.916504
vt 0.583333 0.750000
vt 0.500000 0.750000
vt 0.583333 0.666667
vt 0.666667 0.833333
vt 0.583333 0.833333
vt 0.750000 0.916667
vt 0.666667 0.916504
vt 0.750000 0.750000
vt 0.666667 0.750000
vt 0.833333 0.666667
vt 0.750000 0.666667
vt 0.833333 0.833333
vt 0.750000 0.833333
vt 0.916667 0.916667
vt 0.833333 0.916504
vt 0.833333 0.750000
vt 0.916667 0.666667
vt 0.916667 0.833333
vt 1.000000 0.500000
vt 0.959319 0.481709
vt 0.250000 0.490000
vt 0.457846 0.370000
vt 0.531125 0.583246
vt 0.833333 0.500000
vt 0.750000 0.583333
vt 0.849745 0.399495
vt 0.457846 0.130000
vt 0.549842 0.459926
vt 0.666667 0.500000
vt 0.668972 0.358389
vt 0.250000 0.010000
vt 0.426162 0.336607
vt 0.500000 0.500000
vt 0.488199 0.399495
vt 0.042154 0.130000
vt 0.231283 0.336607
vt 0.333333 0.500000
vt 0.378625 0.481709
vt 0.042154 0.370000
vt 0.107602 0.459926
vt 0.166667 0.500000
vt 0.340250 0.522815
vt 0.126320 0.583246
vt 0.433962 0.356211
vt 0.433962 0.143789
vt 0.446553 0.250000
vt 0.250000 0.037579
vt 0.348276 0.079780
vt 0.066038 0.143789
vt 0.151723 0.079780
vt 0.066038 0.356211
vt 0.053447 0.250000
vt 0.250000 0.462421
vt 0.151723 0.420220
vt 0.348277 0.420220
vt 0.833333 0.583496
vt 0.000000 0.500000
vt 0.166667 1.000000
vt 0.000000 0.833333
vt 0.000000 0.666667
vt 0.333333 1.000000
vt 0.957846 0.130000
vt 0.750000 0.010000
vt 0.542154 0.130000
vt 0.542154 0.370000
vt 0.500000 1.000000
vt 0.666667 1.000000
vt 0.833333 1.000000
vt 0.250000 0.462421
vt 0.341981 0.409316
vt 0.433962 0.356211
vt 0.158019 0.409316
vt 0.066038 0.356211
vt 0.066038 0.250000
vt 0.066038 0.143789
vt 0.158019 0.090684
vt 0.250000 0.037579
vt 0.341981 0.090684
vt 0.433962 0.143789
vt 0.433962 0.250000
vn 0.6762 0.0525 0.7349
vn -0.2983 0.0525 0.9530
vn -0.9745 0.0525 0.2182
vn 0.2983 0.0525 -0.9530
vn -0.6762 0.0525 -0.7349
vn -0.9753 -0.0598 -0.2124
vn -0.8062 0.2361 -0.5425
vn 0.4039 0.2015 -0.8923
vn -0.3666 0.6154 -0.6978
vn -0.9747 0.2015 -0.0964
vn -0.7873 0.1756 -0.5911
vn -0.9055 0.1756 0.3862
vn -0.8729 0.2361 0.4270
vn -0.6716 -0.0598 0.7385
vn -0.5708 0.2015 0.7960
vn 0.0000 -1.0000 -0.0000
vn -0.1183 0.1756 0.9773
vn -0.0667 0.2361 0.9694
vn 0.3037 -0.0598 0.9509
vn 0.4039 0.2015 0.8923
vn 0.7873 0.1756 0.5911
vn 0.8062 0.2361 0.5425
vn 0.9753 -0.0598 0.2124
vn 0.9747 0.2015 0.0964
vn 0.9055 0.1756 -0.3862
vn 0.8729 0.2361 -0.4270
vn 0.6716 -0.0598 -0.7385
vn 0.5708 0.2015 -0.7960
vn 0.1183 0.1756 -0.9773
vn 0.0667 0.2361 -0.9694
vn 0.3869 -0.6335 -0.6701
vn 0.3869 0.6335 -0.6701
vn 0.7737 -0.6335 -0.0000
vn 0.7737 0.6335 0.0000
vn 0.3869 -0.6335 0.6701
vn 0.3869 0.6335 0.6701
vn -0.3869 -0.6335 0.6701
vn -0.3869 0.6335 0.6701
vn -0.7737 -0.6335 0.0000
vn -0.7737 0.6335 0.0000
vn -0.3869 -0.6335 -0.6701
vn -0.3869 0.6335 -0.6701
vn 0.2491 0.9685 0.0000
vn 0.1245 0.9685 0.2157
vn -0.1245 0.9685 0.2157
vn -0.2491 0.9685 0.0000
vn -0.1245 0.9685 -0.2157
vn 0.1245 0.9685 -0.2157
vn 0.9745 0.0525 -0.2182
vn 0.7264 -0.6811 0.0920
vn 0.2835 -0.6811 -0.6751
vn 0.6762 0.0525 -0.7349
vn 0.2835 -0.6811 0.6751
vn 0.7264 -0.6811 -0.0920
vn 0.9745 0.0525 0.2182
vn -0.4429 -0.6811 0.5831
vn 0.4429 -0.6811 0.5831
vn 0.2983 0.0525 0.9530
vn -0.7264 -0.6811 -0.0920
vn -0.2835 -0.6811 0.6751
vn -0.6762 0.0525 0.7349
vn 0.4429 -0.6811 -0.5831
vn -0.4429 -0.6811 -0.5831
vn -0.2983 0.0525 -0.9530
vn -0.2835 -0.6811 -0.6751
vn -0.7264 -0.6811 0.0920
vn -0.9745 0.0525 -0.2182
vn -0.7876 0.6154 -0.0313
vn -0.4209 0.6154 -0.6664
vn -0.6716 -0.0598 -0.7385
vn -0.0667 0.2361 -0.9694
vn -0.0964 -0.2015 -0.9747
vn -0.7960 -0.2015 -0.5708
vn 0.4270 -0.2361 -0.8729
vn -0.4270 -0.2361 -0.8729
vn -0.4039 0.2015 -0.8923
vn 0.3666 0.6154 -0.6978
vn 0.3037 -0.0598 -0.9509
vn -0.3037 -0.0598 -0.9509
vn -0.5708 0.2015 -0.7960
vn -0.5425 -0.2361 -0.8062
vn -0.9694 -0.2361 -0.0667
vn -0.1183 0.1756 -0.9773
vn -0.0247 -0.2839 -0.9585
vn -0.8178 -0.2839 -0.5006
vn -0.9055 0.1756 -0.3862
vn -0.8425 -0.2839 -0.4579
vn -0.8425 -0.2839 0.4579
vn -0.8729 0.2361 -0.4270
vn -0.8923 -0.2015 -0.4039
vn -0.8923 -0.2015 0.4039
vn -0.4209 0.6154 0.6664
vn -0.7876 0.6154 0.0313
vn -0.9753 -0.0598 0.2124
vn -0.9747 0.2015 0.0964
vn -0.9694 -0.2361 0.0667
vn -0.5425 -0.2361 0.8062
vn -0.7873 0.1756 0.5911
vn -0.8178 -0.2839 0.5006
vn -0.0247 -0.2839 0.9585
vn -0.8062 0.2361 0.5425
vn -0.7960 -0.2015 0.5708
vn -0.0964 -0.2015 0.9747
vn 0.3666 0.6154 0.6978
vn -0.3666 0.6154 0.6978
vn -0.3037 -0.0598 0.9509
vn -0.4039 0.2015 0.8923
vn -0.4270 -0.2361 0.8729
vn 0.4270 -0.2361 0.8729
vn 0.1183 0.1756 0.9773
vn 0.0247 -0.2839 0.9585
vn 0.8178 -0.2839 0.5006
vn 0.0667 0.2361 0.9694
vn 0.0964 -0.2015 0.9747
vn 0.7960 -0.2015 0.5708
vn 0.7876 0.6154 0.0313
vn 0.4209 0.6154 0.6664
vn 0.6716 -0.0598 0.7385
vn 0.5708 0.2015 0.7960
vn 0.5425 -0.2361 0.8062
vn 0.9694 -0.2361 0.0667
vn 0.9055 0.1756 0.3862
vn 0.8425 -0.2839 0.4579
vn 0.8425 -0.2839 -0.4579
vn 0.8729 0.2361 0.4270
vn 0.8923 -0.2015 0.4039
vn 0.8923 -0.2015 -0.4039
vn 0.4209 0.6154 -0.6664
vn 0.7876 0.6154 -0.0313
vn 0.9753 -0.0598 -0.2124
vn 0.9747 0.2015 -0.0964
vn 0.9694 -0.2361 -0.0667
vn 0.5425 -0.2361 -0.8062
vn 0.7873 0.1756 -0.5911
vn 0.8178 -0.2839 -0.5006
vn 0.0247 -0.2839 -0.9585
vn 0.8062 0.2361 -0.5425
vn 0.7960 -0.2015 -0.5708
vn 0.0964 -0.2015 -0.9747
vn 0.0260 0.9986 -0.0451
vn -0.8613 0.5081 -0.0000
vn 0.0260 0.9986 0.0451
vn 0.0520 0.9986 0.0000
vn -0.4306 0.5081 -0.7459
vn -0.0260 0.9986 0.0451
vn 0.4306 0.5081 -0.7459
vn -0.0520 0.9986 0.0000
vn 0.8613 0.5081 0.0000
vn -0.0260 0.9986 -0.0451
vn 0.4306 0.5081 0.7459
vn -0.4306 0.5081 0.7459
vn 0.4904 -0.1946 -0.8495
vn -0.0000 1.0000 0.0000
vn -0.9809 -0.1946 0.0000
vn 0.4904 -0.1946 0.8495
vn -0.4904 -0.1946 -0.8495
vn -0.4904 -0.1946 0.8495
vn 0.9809 -0.1946 0.0000
usemtl Material.001
s off
f 24/1/1 27/2/1 62/3/1
f 29/4/2 32/5/2 63/6/2
f 34/7/3 37/8/3 64/9/3
f 13/10/4 17/11/4 65/12/4
f 39/13/5 42/14/5 66/15/5
f 38/16/6 35/17/6 67/18/6
f 38/16/7 40/19/7 68/20/7
f 14/21/8 16/22/8 69/23/8
f 40/19/9 48/24/9 70/25/9
f 36/26/10 38/16/10 71/27/10
f 39/13/11 41/28/11 72/29/11
f 34/7/12 36/26/12 73/30/12
f 33/31/13 35/17/13 74/32/13
f 33/31/14 30/33/14 75/34/14
f 31/35/15 33/31/15 76/36/15
f 1/37/16 3/38/16 77/39/16
f 29/4/17 31/35/17 78/40/17
f 28/41/18 30/33/18 79/42/18
f 28/41/19 25/43/19 80/44/19
f 26/45/20 28/41/20 81/46/20
f 24/1/21 26/45/21 82/47/21
f 23/48/22 25/43/22 83/49/22
f 23/48/23 20/50/23 84/51/23
f 21/52/24 23/48/24 85/53/24
f 19/54/25 21/52/25 86/55/25
f 18/56/26 20/50/26 87/57/26
f 18/56/27 15/58/27 88/59/27
f 16/22/28 18/56/28 89/60/28
f 13/10/29 16/22/29 90/61/29
f 14/21/30 15/58/30 91/62/30
f 1/63/31 17/11/31 92/64/31
f 48/65/32 44/66/32 93/67/32
f 3/68/33 22/69/33 94/70/33
f 44/66/34 43/71/34 95/72/34
f 5/73/35 27/2/35 96/74/35
f 43/71/36 45/75/36 97/76/36
f 7/77/37 32/5/37 98/78/37
f 45/75/38 46/79/38 99/80/38
f 9/81/39 37/8/39 100/82/39
f 46/79/40 47/83/40 101/84/40
f 11/85/41 42/14/41 102/86/41
f 48/65/42 40/19/42 103/87/42
f 4/88/43 6/89/43 104/90/43
f 6/89/44 8/91/44 105/92/44
f 8/91/45 10/93/45 106/94/45
f 10/93/46 12/95/46 107/96/46
f 12/95/47 2/97/47 108/98/47
f 2/97/48 4/88/48 109/99/48
f 19/54/49 22/69/49 61/100/49
f 22/69/50 3/68/50 61/100/50
f 3/68/51 17/11/51 61/100/51
f 17/11/52 19/54/52 61/100/52
f 27/2/53 5/73/53 62/3/53
f 5/73/54 22/69/54 62/3/54
f 22/69/55 24/1/55 62/3/55
f 32/5/56 7/77/56 63/6/56
f 7/77/57 27/2/57 63/6/57
f 27/2/58 29/4/58 63/6/58
f 37/8/59 9/81/59 64/9/59
f 9/81/60 32/5/60 64/9/60
f 32/5/61 34/7/61 64/9/61
f 17/11/62 1/101/62 65/12/62
f 1/101/63 42/14/63 65/12/63
f 42/14/64 13/10/64 65/12/64
f 42/14/65 11/85/65 66/15/65
f 11/85/66 37/8/66 66/15/66
f 37/8/67 39/13/67 66/15/67
f 35/17/68 47/102/68 67/18/68
f 47/102/69 40/19/69 67/18/69
f 40/19/70 38/16/70 67/18/70
f 40/19/71 14/103/71 68/20/71
f 14/103/72 41/28/72 68/20/72
f 41/28/73 38/16/73 68/20/73
f 16/22/74 13/104/74 69/23/74
f 13/104/75 41/28/75 69/23/75
f 41/28/76 14/21/76 69/23/76
f 48/24/77 15/58/77 70/25/77
f 15/58/78 14/103/78 70/25/78
f 14/103/79 40/19/79 70/25/79
f 38/16/80 41/28/80 71/27/80
f 41/28/81 39/13/81 71/27/81
f 39/13/82 36/26/82 71/27/82
f 41/28/83 13/104/83 72/29/83
f 13/104/84 42/14/84 72/29/84
f 42/14/85 39/13/85 72/29/85
f 36/26/86 39/13/86 73/30/86
f 39/13/87 37/8/87 73/30/87
f 37/8/88 34/7/88 73/30/88
f 35/17/89 38/16/89 74/32/89
f 38/16/90 36/26/90 74/32/90
f 36/26/91 33/31/91 74/32/91
f 30/33/92 46/105/92 75/34/92
f 46/105/93 35/17/93 75/34/93
f 35/17/94 33/31/94 75/34/94
f 33/31/95 36/26/95 76/36/95
f 36/26/96 34/7/96 76/36/96
f 34/7/97 31/35/97 76/36/97
f 3/38/16 5/106/16 77/39/16
f 5/106/16 7/107/16 77/39/16
f 7/107/16 9/108/16 77/39/16
f 9/108/16 11/109/16 77/39/16
f 11/109/16 1/37/16 77/39/16
f 31/35/98 34/7/98 78/40/98
f 34/7/99 32/5/99 78/40/99
f 32/5/100 29/4/100 78/40/100
f 30/33/101 33/31/101 79/42/101
f 33/31/102 31/35/102 79/42/102
f 31/35/103 28/41/103 79/42/103
f 25/43/104 45/110/104 80/44/104
f 45/110/105 30/33/105 80/44/105
f 30/33/106 28/41/106 80/44/106
f 28/41/107 31/35/107 81/46/107
f 31/35/108 29/4/108 81/46/108
f 29/4/109 26/45/109 81/46/109
f 26/45/110 29/4/110 82/47/110
f 29/4/111 27/2/111 82/47/111
f 27/2/112 24/1/112 82/47/112
f 25/43/113 28/41/113 83/49/113
f 28/41/114 26/45/114 83/49/114
f 26/45/115 23/48/115 83/49/115
f 20/50/116 43/111/116 84/51/116
f 43/111/117 25/43/117 84/51/117
f 25/43/118 23/48/118 84/51/118
f 23/48/119 26/45/119 85/53/119
f 26/45/120 24/1/120 85/53/120
f 24/1/121 21/52/121 85/53/121
f 21/52/122 24/1/122 86/55/122
f 24/1/123 22/69/123 86/55/123
f 22/69/124 19/54/124 86/55/124
f 20/50/125 23/48/125 87/57/125
f 23/48/126 21/52/126 87/57/126
f 21/52/127 18/56/127 87/57/127
f 15/58/128 44/112/128 88/59/128
f 44/112/129 20/50/129 88/59/129
f 20/50/130 18/56/130 88/59/130
f 18/56/131 21/52/131 89/60/131
f 21/52/132 19/54/132 89/60/132
f 19/54/133 16/22/133 89/60/133
f 16/22/134 19/54/134 90/61/134
f 19/54/135 17/11/135 90/61/135
f 17/11/136 13/10/136 90/61/136
f 15/58/137 18/56/137 91/62/137
f 18/56/138 16/22/138 91/62/138
f 16/22/139 14/21/139 91/62/139
f 17/11/31 3/38/31 92/64/31
f 3/38/31 1/63/31 92/64/31
f 44/66/32 15/58/32 93/67/32
f 15/58/32 48/65/32 93/67/32
f 22/69/33 5/106/33 94/70/33
f 5/106/33 3/68/33 94/70/33
f 43/71/34 20/50/34 95/72/34
f 20/50/34 44/66/34 95/72/34
f 27/2/35 7/107/35 96/74/35
f 7/107/35 5/73/35 96/74/35
f 45/75/36 25/43/36 97/76/36
f 25/43/36 43/71/36 97/76/36
f 32/5/37 9/108/37 98/78/37
f 9/108/37 7/77/37 98/78/37
f 46/79/38 30/33/38 99/80/38
f 30/33/38 45/75/38 99/80/38
f 37/8/39 11/109/39 100/82/39
f 11/109/39 9/81/39 100/82/39
f 47/83/40 35/17/40 101/84/40
f 35/17/40 46/79/40 101/84/40
f 42/14/41 1/37/41 102/86/41
f 1/37/41 11/85/41 102/86/41
f 40/19/42 47/83/42 103/87/42
f 47/83/42 48/65/42 103/87/42
f 6/89/140 43/71/140 104/90/140
f 43/71/141 44/66/141 104/90/141
f 44/66/142 4/88/142 104/90/142
f 8/91/143 45/75/143 105/92/143
f 45/75/144 43/71/144 105/92/144
f 43/71/145 6/89/145 105/92/145
f 10/93/142 46/79/142 106/94/142
f 46/79/146 45/75/146 106/94/146
f 45/75/147 8/91/147 106/94/147
f 12/95/145 47/83/145 107/96/145
f 47/83/148 46/79/148 107/96/148
f 46/79/149 10/93/149 107/96/149
f 2/97/147 48/65/147 108/98/147
f 48/65/150 47/83/150 108/98/150
f 47/83/140 12/95/140 108/98/140
f 4/88/149 44/66/149 109/99/149
f 44/66/151 48/65/151 109/99/151
f 48/65/143 2/97/143 109/99/143
usemtl Material.002
f 4/88/152 2/97/152 54/113/152 60/114/152 50/115/152
f 50/115/153 60/114/153 54/113/153 59/116/153 53/117/153 58/118/153 52/119/153 57/120/153 51/121/153 56/122/153 49/123/153 55/124/153
f 12/95/154 10/93/154 52/119/154 58/118/154 53/117/154
f 8/91/155 6/89/155 49/123/155 56/122/155 51/121/155
f 2/97/156 12/95/156 53/117/156 59/116/156 54/113/156
f 10/93/157 8/91/157 51/121/157 57/120/157 52/119/157
f 6/89/158 4/88/158 50/115/158 55/124/158 49/123/158
